<svg fill="#ffba19" xmlns="http://www.w3.org/2000/svg"  viewBox="0 0 64 64" width="64px" height="64px"><path d="M 32.013672 6 C 17.677949 6 6.0136719 17.664288 6.0136719 32 C 6.0136719 46.335712 17.677949 58 32.013672 58 C 46.349394 58 58.013672 46.335712 58.013672 32 C 58.013672 17.664288 46.349394 6 32.013672 6 z M 32.013672 10 C 44.187635 10 54.013672 19.826045 54.013672 32 C 54.013672 44.173955 44.187635 54 32.013672 54 C 19.839708 54 10.013672 44.173955 10.013672 32 C 10.013672 19.826045 19.839708 10 32.013672 10 z M 32.013672 17 C 23.742672 17 17.013672 23.729 17.013672 32 C 17.013672 40.271 23.742672 47 32.013672 47 C 40.284672 47 47.013672 40.271 47.013672 32 C 47.013672 23.729 40.284672 17 32.013672 17 z M 32.066406 19 L 35.035156 28.044922 L 44.621094 28.044922 L 36.927734 33.847656 L 39.896484 43.025391 L 32.066406 37.357422 L 24.238281 43.025391 L 27.207031 33.847656 L 19.513672 28.044922 L 29.097656 28.044922 L 32.066406 19 z"/></svg>