<svg xmlns="http://www.w3.org/2000/svg" viewBox="0 0 449.7 449.7">
  <defs>
    <style>
      .cls-1 {
        fill: #3f3f50;
      }

      .cls-2 {
        fill: #ffba19;
        fill-rule: evenodd;
      }
    </style>
  </defs>
  <g id="Layer_2" data-name="Layer 2">
    <g id="Layer_1-2" data-name="Layer 1">
      <g>
        <circle class="cls-1" cx="224.8" cy="224.8" r="224.8" transform="translate(-93.1 224.8) rotate(-45)"/>
        <path class="cls-2" d="M99.8,179.7h50.6V349.8H99.8Zm25-86.3a30.7,30.7,0,0,1,0,61.3c-16.9,0-30-13.7-30-30.6s13.1-30.7,30-30.7Zm55.6,86.3h50v23.8a58,58,0,0,1,48.2-25.7h13.7c31.9,0,57.5,26.3,57.5,57.6V349.8h-50V334.1h0V257.9h0c-.6-19.4-13.7-34.4-33.1-34.4h0c-19.4,0-35.6,15-36.3,34.4h0v91.9h-50Z"/>
      </g>
    </g>
  </g>
</svg>
