<svg xmlns="http://www.w3.org/2000/svg" viewBox="0 0 449.7 449.7">
  <defs>
    <style>
      .cls-1 {
        fill: #3f3f50;
      }

      .cls-2 {
        fill: #ffba19;
        fill-rule: evenodd;
      }
    </style>
  </defs>
  <g id="Layer_2" data-name="Layer 2">
    <g id="Layer_1-2" data-name="Layer 1">
      <g>
        <circle class="cls-1" cx="224.8" cy="224.8" r="224.8" transform="translate(-93.1 224.8) rotate(-45)"/>
        <path class="cls-2" d="M343.4,155.5c-13.8-1.9-25.8-9.4-35.8-20.8-12-13.1-18.9-30.7-18.3-47.7H239.7V284.9c0,23.2-18.8,42.1-42.7,42.1-13.8,0-26.4-6.9-34.6-17.6A42.5,42.5,0,0,1,197,242.8a39.6,39.6,0,0,1,12.6,1.9V194.4a81.7,81.7,0,0,0-12.6-1.2h-1.9a91.6,91.6,0,0,0-65.3,153.9A93.2,93.2,0,0,0,197,376c50.9,0,92.3-40.9,92.3-91.1v-103a91.8,91.8,0,0,0,68.5,23.2V155.5A29.2,29.2,0,0,1,343.4,155.5Z"/>
      </g>
    </g>
  </g>
</svg>
