<svg xmlns="http://www.w3.org/2000/svg" viewBox="0 0 449.7 449.7">
  <defs>
    <style>
      .cls-1 {
        fill: #3f3f50;
      }

      .cls-2 {
        fill: #ffba19;
        fill-rule: evenodd;
      }
    </style>
  </defs>
  <g id="Layer_2" data-name="Layer 2">
    <g id="Layer_1-2" data-name="Layer 1">
      <g>
        <circle class="cls-1" cx="224.8" cy="224.8" r="224.8" transform="translate(-93.1 224.8) rotate(-45)"/>
        <path class="cls-2" d="M227.3,184.9c-11-58.4,59.1-93.1,100.5-51,0,0,18.4-5.1,34.7-15.5a63.5,63.5,0,0,1-25.9,32.5s22.2-2.9,31.8-8.9c0,0-9.6,20-27.3,27.4C350.7,303.1,206.7,384.3,90,317.8c0,0,57.6,3,81.9-25.1,0,0-35.4,3-53.1-39.9,0,0,13.3,5.2,26.6-1.4,0,0-41.4-6.7-45.1-56.2,0,0,13.3,10.4,28.1,6.7,0,0-45.8-27.4-20-76.8,0,0,48.8,62,118.9,59.8Z"/>
      </g>
    </g>
  </g>
</svg>
