<svg xmlns="http://www.w3.org/2000/svg" viewBox="0 0 449.7 449.7">
  <defs>
    <style>
      .cls-1 {
        fill: #3f3f50;
      }

      .cls-2 {
        fill: #ffba19;
        fill-rule: evenodd;
      }
    </style>
  </defs>
  <g id="Layer_2" data-name="Layer 2">
    <g id="Layer_1-2" data-name="Layer 1">
      <g>
        <circle class="cls-1" cx="224.8" cy="224.8" r="224.8" transform="translate(-93.1 224.8) rotate(-45)"/>
        <path class="cls-2" d="M174.3,159.9c7.9-5.1,13-1.5,15.9,6.5l7.2,18.7s5.1,10.1-7.9,20.3c-2.2,1.4-2.2,1.4-1.5,5,2.9,8.7,14.5,34.7,51.3,54.9,3.6,2.1,4.3,2.1,7.9-.7l9.4-9.4c6.5-5.8,10.1-8,15.9-3.6s8.7,6.5,13,9.3,11.6,8,4.3,16.7l-6.5,7.9c-9.4,11.6-17.3,12.3-29.6,9.4-46.9-12.3-81.6-45.5-96.7-92.4-5.1-18.1,2.1-33.2,17.3-42.6Zm50.5-77.3a142.3,142.3,0,1,1,0,284.5c-21.6,0-41.8-4.3-59.9-13l-75.8,13L99.2,292l-.7-1.4a142.6,142.6,0,0,1,126.3-208ZM135.3,335.3l20.2-3.6,12.3-2.2a117.2,117.2,0,0,0,57,14.5A119.2,119.2,0,1,0,105.7,224.8c0,23.9,7.2,45.5,18.8,64.3L123,299.9l-2.8,21.7L118,338.2Z"/>
      </g>
    </g>
  </g>
</svg>
