<svg xmlns="http://www.w3.org/2000/svg" viewBox="0 0 449.7 449.7">
  <defs>
    <style>
      .cls-1, .cls-3 {
        fill: #3f3f50;
      }

      .cls-2 {
        fill: #ffba19;
      }

      .cls-2, .cls-3 {
        fill-rule: evenodd;
      }
    </style>
  </defs>
  <g id="Layer_2" data-name="Layer 2">
    <g id="Layer_1-2" data-name="Layer 1">
      <g>
        <circle class="cls-1" cx="224.8" cy="224.8" r="224.8" transform="translate(-93.1 224.8) rotate(-45)"/>
        <g>
          <path class="cls-2" d="M142.3,129.7c26.9-2.1,58.7-3.2,82.9-3.2h0c24.2,0,55.5,1.1,82.9,3.2,31.8,2.7,48,8.1,52.3,39.9,2.1,14.5,3.2,34.4,3.2,54.9h0c0,20.4-1.1,40.9-3.2,54.9-4.3,32.3-20.5,37.2-52.3,39.9-27.4,2.6-58.7,3.2-82.9,3.2h0c-24.2,0-56-.6-82.9-3.2-31.8-2.7-48.5-7.6-52.8-39.9a523.1,523.1,0,0,1-2.7-54.9h0a529,529,0,0,1,2.7-54.9c4.3-31.8,21-37.2,52.8-39.9Z"/>
          <polygon class="cls-3" points="197.2 183 269.4 224.5 197.2 266.5 197.2 183"/>
        </g>
      </g>
    </g>
  </g>
</svg>
